<svg width="100%" viewBox="0 0 680 680" xmlns="http://www.w3.org/2000/svg">
  <defs>
    <clipPath id="gc">
      <path d="M340,100
               C274,100 222,154 222,220
               L222,520
               L257,492 L292,520 L327,492 L340,520
               L353,492 L388,520 L423,492 L458,520
               L458,220
               C458,154 406,100 340,100 Z"/>
    </clipPath>
  </defs>

  <path d="M340,100
           C274,100 222,154 222,220
           L222,520
           L257,492 L292,520 L327,492 L340,520
           L353,492 L388,520 L423,492 L458,520
           L458,220
           C458,154 406,100 340,100 Z"
        fill="#1c2333"/>

  <g clip-path="url(#gc)">
    <rect x="222" y="410" width="34" height="120" fill="#22c55e" opacity="0.9"/>
    <rect x="262" y="380" width="34" height="150" fill="#22c55e" opacity="0.85"/>
    <rect x="302" y="355" width="34" height="175" fill="#4ade80" opacity="0.8"/>
    <rect x="342" y="330" width="34" height="200" fill="#4ade80" opacity="0.75"/>
    <rect x="382" y="310" width="34" height="220" fill="#22c55e" opacity="0.85"/>
    <rect x="422" y="360" width="36" height="170" fill="#22c55e" opacity="0.8"/>

    <rect x="222" y="270" width="34" height="100" fill="#22c55e" opacity="0.45"/>
    <rect x="262" y="240" width="34" height="110" fill="#22c55e" opacity="0.35"/>
    <rect x="302" y="210" width="34" height="115" fill="#22c55e" opacity="0.28"/>
    <rect x="342" y="195" width="34" height="110" fill="#22c55e" opacity="0.22"/>
    <rect x="382" y="210" width="34" height="75" fill="#22c55e" opacity="0.18"/>
    <rect x="422" y="240" width="36" height="90" fill="#22c55e" opacity="0.15"/>
  </g>

  <path d="M340,100
           C274,100 222,154 222,220
           L222,520
           L257,492 L292,520 L327,492 L340,520
           L353,492 L388,520 L423,492 L458,520
           L458,220
           C458,154 406,100 340,100 Z"
        fill="none" stroke="#22c55e" stroke-width="3" opacity="0.6"/>

  <circle cx="305" cy="280" r="18" fill="#22c55e" opacity="0.15"/>
  <circle cx="375" cy="280" r="18" fill="#22c55e" opacity="0.15"/>
  <circle cx="305" cy="280" r="9" fill="#22c55e"/>
  <circle cx="375" cy="280" r="9" fill="#22c55e"/>
  <circle cx="302" cy="277" r="3.5" fill="#bbf7d0"/>
  <circle cx="372" cy="277" r="3.5" fill="#bbf7d0"/>
</svg>
